<?xml version="1.0" encoding="UTF-8" standalone="no"?>
<!DOCTYPE svg PUBLIC "-//W3C//DTD SVG 1.1//EN" "http://www.w3.org/Graphics/SVG/1.1/DTD/svg11.dtd">
<svg id="Logitech.Gaming.LeftHandedController.G13" height="1052" width="744" xmlns="http://www.w3.org/2000/svg" xml:space="preserve" version="1.1" >
 <g id="Key_Trays" fill="#222322" transform="translate(1.3002)">
  <g id="Main_Tray" stroke-width="2" stroke="#000">
   <path id="path3124" d="m72.832 217.27 456.79 1.4142 7.7782 0.70711 3.5355 4.2426 9.1924 60.104-2.1213 4.2426-3.5355 8.4853-117.38 161.22-5.6568 6.364-5.6568 2.1213-6.364 1.4142-77.782 4.2426h-62.225l-64.347-1.4142-12.728-2.1213-9.1924-5.6569-14.849-17.678-103.24-147.79-4.9497-8.4853-2.1213-9.8995 5.6569-42.426 1.4142-10.607z"/>
  </g>
 </g>
 <g id="Input_Set" stroke="#000" stroke-width="1">
   <g id="101" transform="matrix(1.0578 0 0 1.1193 -24.408 17.914)">
    <g id="Key_101" fill="#2d3031">
     <path id="path7073" d="m150.63 186.48c0-0.362-0.0369-0.726-0.10984-1.082-0.0749-0.366-0.1858-0.723-0.33157-1.068-0.1468-0.347-0.32644-0.68-0.53894-0.993-0.21249-0.312-0.45476-0.604-0.72679-0.868-0.27101-0.264-0.57077-0.5-0.89105-0.706s-0.66212-0.381-1.0173-0.523c-0.35313-0.141-0.71961-0.25-1.0933-0.322-0.36545-0.071-0.73911-0.107-1.1118-0.107h-40.738c-0.37264 0-0.74527 0.036-1.1118 0.107-0.37469 0.073-1.845-0.12111-2.1982 0.0209-0.35621 0.143-2.5974 0.19716-2.9187 0.40416-0.32028 0.206-1.294 0.56384-1.565 0.82884-0.27101 0.264-0.39074 0.61642-0.6022 0.92842-0.21147 0.312-0.75873 0.82627-0.9045 1.1723-0.14474 0.343-0.31688 0.58016-0.39182 0.94416-0.07288 0.356-0.30374 0.72352-0.35492 1.083 0 0-3.897 15.843-3.3974 23.863 0.05547 0.89051 0.23526 1.8242 0.70298 2.5805 0.70592 1.1414 1.8483 1.9888 2.9973 2.6674 0.68424 0.40407 1.477 0.59201 2.2443 0.791 0.83654 0.21693 0.31319-0.0106 2.5548 0.43467 2.7479 0.44526 3.1853 0.55479 4.7835 0.79665 2.2852 0.34583 4.5687 0.72638 6.87 0.93563 4.2636 0.38767 11.973 0.58549 12.829 0.59036l21.202 0.12085c0.37161 0.002 0.74528-0.036 1.1118-0.107 0.37469-0.073 0.7422-0.181 1.0953-0.323 0.35621-0.143 0.69805-0.318 1.0194-0.525 0.32028-0.206 0.62004-0.443 0.89104-0.708 0.27101-0.264 0.51328-0.556 0.72475-0.868s0.39111-0.645 0.53688-0.991c0.14577-0.344 0.25664-0.701 0.33055-1.065 0.0729-0.356 0.10984-0.72 0.10984-1.083z"/>
    </g>
    <g id="Letter_101" fill="#b2b2b2" stroke="none">
     <path id="path7093" d="m119.63 194.13c1.305 0 2.209 1.066 2.209 2.371h-2.017c0-0.192-0.163-0.341-0.34-0.341h-3.024c-0.178 0-0.341 0.149-0.341 0.341v4.372c0 0.223 0.163 0.297 0.326 0.297h3.025c0.191 0 0.34-0.148 0.34-0.341v-1.186h-1.882v-2.015h3.913v3.35c0 1.303-0.919 2.222-2.224 2.222h-3.32c-1.318 0-2.209-0.873-2.209-2.178v-4.669c0-1.304 0.919-2.223 2.238-2.223h3.306zm6.505 0v9.07h-2.031v-7.04h-1.157v-2.03h3.188z"/>
    </g>
   </g>
   <g id="102" transform="matrix(1.0578 0 0 1.0862 41.991 -13.691)">
    <g id="Key_102" fill="#2d3031">
     <path id="path7025" d="m105.11 216.1 39.668 1.1784c0.36284 0.0108 0.72561 0.0586 1.0794 0.13911 0.36276 0.0828 0.71644 0.20236 1.0552 0.35348 0.34174 0.15221 0.66953 0.33703 0.97542 0.5522 0.3059 0.21518 0.59094 0.45975 0.84717 0.73147 0.25724 0.27176 0.48468 0.57064 0.68255 0.88865 0.19784 0.31901 0.36312 0.65707 0.496 1.0082 0.13195 0.34907 0.22956 0.70912 0.29192 1.0771 0.0607 0.35796 0.0861 0.72287 0.0756 1.0847l-0.78022 26.917c-0.0105 0.36284-0.0581 0.72559-0.13833 1.0794-0.0825 0.3627-0.20085 0.71634-0.35272 1.055-0.15197 0.34163-0.33654 0.66929-0.55149 0.97504s-0.45931 0.59062-0.73084 0.84666c-0.27157 0.25705-0.57028 0.48428-0.88814 0.68193-0.31887 0.19761-0.65682 0.36365-1.0078 0.49529-0.34796 0.13172-0.70894 0.22904-1.0759 0.29117-0.3579 0.0604-0.72279 0.0856-1.0856 0.0748l-39.673-1.1785c-0.36284-0.0108-0.72561-0.0586-1.0794-0.13911-0.36176-0.0828-0.71644-0.20236-1.0552-0.35348-0.34174-0.15221-0.66953-0.33703-0.97542-0.5522-0.3059-0.21518-0.59094-0.45975-0.84717-0.73147-0.25624-0.27173-0.48468-0.57064-0.68255-0.88865-0.19784-0.31901-0.36312-0.65707-0.496-1.0082-0.13197-0.34807-0.22955-0.70912-0.29192-1.0771-0.05965-0.35793-0.08509-0.72284-0.07558-1.0857l0.78022-26.917c0.01049-0.36184 0.05802-0.72459 0.13833-1.0794 0.08354-0.36267 0.20184-0.71631 0.35272-1.055 0.15196-0.34163 0.33654-0.66929 0.55149-0.97504s0.45931-0.59062 0.73084-0.84666c0.27157-0.25705 0.57028-0.48428 0.88814-0.68193 0.31887-0.19761 0.65682-0.36365 1.0078-0.49528 0.34796-0.13173 0.70894-0.22905 1.0759-0.29118 0.35887-0.0594 0.72376-0.0846 1.0866-0.0738z"/>
    </g>
    <g id="Letter_102" fill="#b2b2b2" stroke="none">
     <path id="path7045" d="m123.51 230.8c1.305 0 2.208 1.066 2.208 2.371h-2.015c0-0.192-0.164-0.341-0.341-0.341h-3.023c-0.179 0-0.341 0.149-0.341 0.341v4.372c0 0.223 0.162 0.297 0.325 0.297h3.024c0.192 0 0.341-0.148 0.341-0.341v-1.185h-1.882v-2.017h3.912v3.351c0 1.304-0.919 2.222-2.223 2.222h-3.32c-1.318 0-2.208-0.875-2.208-2.178v-4.669c0-1.305 0.919-2.223 2.239-2.223h3.304zm8.163 0c1.289 0 2.208 0.918 2.208 2.223v0.978c0 0.578-0.223 1.363-0.86 1.808-0.075 0.045-1.482 1.082-2.786 2.031h3.557v2.03h-7.025v-1.986s4.357-3.201 4.98-3.661c0.074-0.059 0.117-0.133 0.117-0.222v-0.83c0-0.192-0.163-0.341-0.339-0.341h-2.476c-0.191 0-0.34 0.149-0.34 0.341h-2.031c0-1.305 1.067-2.371 2.371-2.371h2.624z"/>
    </g>
   </g>
   <g id="103" transform="matrix(1.0578 0 0 1.0896 107.28 -98.191)">
    <g id="Key_103" fill="#2d3031">
     <path id="path7001" d="m100.99 299.64c0.009-0.36187 0.0558-0.72477 0.135-1.0798 0.0824-0.36293 0.19963-0.71695 0.34946-1.0561 0.15091-0.34211 0.33447-0.67035 0.54847-0.97678 0.21401-0.30643 0.45749-0.59207 0.72823-0.84897 0.27077-0.25791 0.56878-0.48608 0.88603-0.68473 0.31825-0.19862 0.6557-0.36573 1.0062-0.49847 0.34756-0.13283 0.70823-0.23129 1.075-0.29458 0.35771-0.0615 0.72252-0.0879 1.0854-0.0782l39.671 1.0529c0.36288 0.01 0.7258 0.0563 1.0799 0.1357 0.36301 0.0817 0.71707 0.20009 1.0563 0.35014 0.34221 0.15113 0.67056 0.33491 0.97712 0.54912 0.30656 0.2142 0.59235 0.45787 0.84943 0.72878 0.25807 0.27094 0.48643 0.5691 0.68528 0.88649 0.19883 0.31838 0.36515 0.65591 0.49912 1.0066 0.13302 0.34865 0.23174 0.70839 0.29524 1.0762 0.0618 0.35776 0.0883 0.72259 0.0789 1.0845l-0.69714 26.92c-0.009 0.36287-0.0558 0.72577-0.135 1.0798-0.0814 0.36296-0.19963 0.71695-0.34946 1.0561-0.15091 0.34211-0.33447 0.67035-0.54847 0.97678-0.21401 0.30643-0.45749 0.59207-0.72823 0.84897-0.27077 0.25791-0.56878 0.48608-0.88603 0.68473-0.31825 0.19862-0.6557 0.36573-1.0062 0.49847-0.34756 0.13283-0.70823 0.23129-1.075 0.29458-0.35771 0.0615-0.72252 0.0879-1.0854 0.0782l-39.666-1.0528c-0.36287-0.01-0.72579-0.0563-1.0798-0.1357-0.36202-0.0816-0.71707-0.20009-1.0563-0.35014-0.34221-0.15113-0.67056-0.33491-0.97712-0.54911-0.30656-0.21421-0.59235-0.45788-0.84943-0.72879-0.25707-0.27091-0.48643-0.5691-0.68528-0.88649-0.19883-0.31838-0.36515-0.65591-0.49912-1.0066-0.13304-0.34765-0.23174-0.7084-0.29524-1.0762-0.0608-0.35773-0.0873-0.72256-0.0789-1.0855l0.69716-26.921z"/>
    </g>
    <g id="Letter_103" fill="#b2b2b2" stroke="none">
     <path id="path7021" d="m124.43 308.14c1.304 0 2.208 1.066 2.208 2.371h-2.017c0-0.192-0.162-0.341-0.339-0.341h-3.025c-0.178 0-0.341 0.149-0.341 0.341v4.372c0 0.223 0.163 0.297 0.326 0.297h3.024c0.193 0 0.341-0.148 0.341-0.341v-1.186h-1.883v-2.015h3.914v3.35c0 1.303-0.918 2.222-2.224 2.222h-3.319c-1.32 0-2.209-0.873-2.209-2.178v-4.669c0-1.304 0.919-2.223 2.237-2.223h3.307zm10.461 3.29c0 0.519-0.163 0.83-0.43 1.215 0.251 0.386 0.414 0.712 0.414 1.201v1.142c0 1.303-0.919 2.222-2.222 2.222h-2.831c-1.305 0-2.224-1.066-2.224-2.371h2.03c0 0.193 0.149 0.341 0.342 0.341h2.534c0.194 0 0.341-0.148 0.341-0.341v-0.845c0-0.177-0.147-0.341-0.341-0.341h-2.505v-2.015h2.52c0.193 0 0.342-0.163 0.342-0.342v-0.785c0-0.192-0.149-0.341-0.342-0.341h-2.52c-0.193 0-0.34 0.149-0.34 0.341h-2.031c0-1.305 0.918-2.371 2.223-2.371h2.816c1.305 0 2.224 0.919 2.224 2.223v1.067z"/>
    </g>
   </g>
   <g id="104" transform="matrix(1.0578 0 0 1.1193 173.1 -152.41)">
    <g id="Key_104" fill="#2d3031">
     <path id="path7049" d="m105.52 335.14h39.685c0.363 0 0.726 0.037 1.083 0.107 0.365 0.072 0.722 0.181 1.065 0.322 0.346 0.142 0.679 0.317 0.991 0.523s0.604 0.442 0.868 0.706c0.265 0.264 0.501 0.556 0.708 0.868 0.207 0.313 0.382 0.646 0.525 0.993 0.142 0.344 0.25 0.702 0.323 1.067 0.071 0.356 0.107 0.72 0.107 1.083v26.929c0 0.363-0.037 0.727-0.107 1.083-0.072 0.365-0.18 0.722-0.322 1.065-0.142 0.346-0.317 0.678-0.523 0.991-0.206 0.312-0.442 0.604-0.706 0.868-0.264 0.265-0.556 0.501-0.868 0.708-0.313 0.207-0.646 0.383-0.993 0.525-0.344 0.142-0.702 0.25-1.067 0.323-0.356 0.071-0.72 0.107-1.083 0.107h-39.68c-0.363 0-0.727-0.037-1.083-0.107-0.364-0.072-0.722-0.181-1.065-0.322-0.346-0.142-0.679-0.317-0.991-0.523-0.312-0.205-0.604-0.442-0.868-0.706s-0.501-0.556-0.708-0.868c-0.207-0.313-0.382-0.646-0.525-0.993-0.142-0.344-0.25-0.702-0.323-1.068-0.07-0.356-0.106-0.72-0.107-1.083v-26.929c0-0.362 0.037-0.727 0.107-1.083 0.073-0.365 0.181-0.722 0.322-1.065 0.142-0.346 0.317-0.679 0.523-0.991s0.442-0.604 0.706-0.868c0.264-0.265 0.556-0.501 0.868-0.708 0.313-0.207 0.646-0.383 0.993-0.525 0.344-0.142 0.702-0.25 1.067-0.323 0.357-0.07 0.721-0.106 1.084-0.106z"/>
    </g>
    <g id="Letter_104" fill="#b2b2b2" stroke="none">
     <path id="path7069" d="m123.1 349.32c1.306 0 2.209 1.066 2.209 2.371h-2.016c0-0.192-0.163-0.341-0.341-0.341h-3.023c-0.179 0-0.342 0.149-0.342 0.341v4.372c0 0.223 0.163 0.297 0.326 0.297h3.025c0.192 0 0.341-0.148 0.341-0.341v-1.19h-1.883v-2.015h3.912v3.35c0 1.303-0.919 2.222-2.224 2.222h-3.32c-1.318 0-2.209-0.873-2.209-2.178v-4.669c0-1.304 0.919-2.223 2.239-2.223h3.306zm10.566 0v9.07h-2.03v-3.557h-5.516v-1.734l1.467-3.779h2.166l-1.35 3.498h3.233v-3.498h2.03z"/>
    </g>
   </g>
   <g id="105" transform="matrix(1.0574 0 0 1.0912 236.57 -222.98)">
    <g id="Key_105" fill="#2d3031">
     <path id="path7121" d="m107.02 408.83h39.685c0.363 0 0.727 0.037 1.083 0.107 0.365 0.072 0.722 0.181 1.065 0.322 0.346 0.142 0.679 0.317 0.991 0.523s0.604 0.442 0.868 0.706c0.265 0.264 0.501 0.556 0.708 0.868 0.207 0.313 0.382 0.646 0.525 0.993 0.142 0.344 0.25 0.702 0.323 1.067 0.071 0.356 0.107 0.72 0.107 1.083v26.929c0 0.363-0.037 0.727-0.107 1.083-0.072 0.365-0.18 0.722-0.322 1.065-0.142 0.346-0.317 0.678-0.523 0.991-0.206 0.312-0.442 0.604-0.706 0.868-0.264 0.265-0.556 0.501-0.868 0.708-0.313 0.207-0.646 0.383-0.993 0.525-0.344 0.142-0.702 0.25-1.067 0.323-0.356 0.071-0.72 0.107-1.083 0.107h-39.68c-0.363 0-0.727-0.037-1.083-0.107-0.364-0.072-0.722-0.181-1.065-0.322-0.346-0.142-0.679-0.317-0.991-0.523-0.312-0.205-0.604-0.442-0.868-0.706s-0.501-0.556-0.708-0.868c-0.207-0.313-0.382-0.646-0.525-0.993-0.142-0.344-0.25-0.702-0.323-1.068-0.07-0.356-0.106-0.72-0.107-1.083v-26.929c0-0.362 0.037-0.727 0.107-1.083 0.073-0.365 0.181-0.722 0.322-1.065 0.142-0.346 0.317-0.679 0.523-0.991s0.442-0.604 0.706-0.868c0.264-0.265 0.556-0.501 0.868-0.708 0.313-0.207 0.646-0.383 0.993-0.525 0.344-0.142 0.702-0.25 1.067-0.323 0.357-0.07 0.721-0.106 1.084-0.106z"/>
    </g>
    <g id="Letter_105" fill="#b2b2b2" stroke="none">
     <path id="path7141" d="m124.56 422.02c1.305 0 2.209 1.066 2.209 2.371h-2.016c0-0.191-0.164-0.34-0.341-0.34h-3.024c-0.178 0-0.341 0.149-0.341 0.34v4.373c0 0.223 0.163 0.297 0.326 0.297h3.02c0.191 0 0.34-0.148 0.34-0.342v-1.186h-1.882v-2.015h3.913v3.35c0 1.303-0.919 2.222-2.224 2.222h-3.32c-1.318 0-2.209-0.873-2.209-2.177v-4.67c0-1.304 0.919-2.223 2.238-2.223h3.306zm9.75 0v2.031h-4.521v1.467h2.698c1.304 0 2.224 0.904 2.224 2.208v1.142c0 1.303-0.92 2.222-2.224 2.222h-2.683c-1.305 0-2.223-1.066-2.223-2.371h2.015c0 0.194 0.163 0.342 0.357 0.342h2.385c0.194 0 0.342-0.148 0.342-0.342v-0.845c0-0.176-0.148-0.341-0.342-0.341h-4.58v-5.513h6.552z"/>
    </g>
   </g>
   <g id="106" transform="matrix(1.0573 -.028161 .027348 1.0623 289.02 -250.83)">
    <g id="Key_106" fill="#2d3031">
     <path id="path7097" d="m106.79 449.19h39.685c0.363 0 0.727 0.037 1.083 0.107 0.365 0.072 0.722 0.181 1.065 0.322 0.346 0.142 0.679 0.317 0.991 0.523s0.604 0.442 0.868 0.706c0.265 0.264 0.501 0.556 0.708 0.868 0.207 0.313 0.382 0.646 0.525 0.993 0.142 0.344 0.25 0.702 0.323 1.067 0.071 0.356 0.107 0.72 0.107 1.083v26.929c0 0.363-0.037 0.727-0.107 1.083-0.072 0.365-0.181 0.722-0.322 1.065-0.142 0.346-0.317 0.678-0.523 0.991-0.206 0.312-0.442 0.604-0.706 0.868-0.264 0.265-0.556 0.501-0.868 0.708-0.313 0.207-0.646 0.383-0.993 0.525-0.344 0.142-0.702 0.25-1.067 0.323-0.356 0.071-0.72 0.107-1.083 0.107h-39.685c-0.363 0-0.727-0.037-1.083-0.107-0.364-0.072-0.722-0.181-1.065-0.322-0.346-0.142-0.679-0.317-0.991-0.523-0.312-0.205-0.604-0.442-0.868-0.706s-0.501-0.556-0.708-0.868c-0.207-0.313-0.382-0.646-0.525-0.993-0.142-0.344-0.25-0.702-0.323-1.068-0.07-0.356-0.106-0.72-0.107-1.083v-26.929c0-0.362 0.037-0.727 0.107-1.083 0.073-0.365 0.181-0.722 0.322-1.065 0.142-0.346 0.317-0.679 0.523-0.991s0.442-0.604 0.706-0.868c0.264-0.265 0.556-0.501 0.868-0.708 0.313-0.207 0.646-0.383 0.993-0.525 0.344-0.142 0.702-0.25 1.067-0.323 0.356-0.07 0.72-0.106 1.083-0.106z"/>
    </g>
    <g id="Letter_106" fill="#b2b2b2" stroke="none">
     <path id="path7117" d="m123.81 463.88c1.305 0 2.208 1.066 2.208 2.371h-2.015c0-0.193-0.164-0.342-0.341-0.342h-3.024c-0.178 0-0.341 0.149-0.341 0.342v4.372c0 0.222 0.163 0.296 0.325 0.296h3.025c0.192 0 0.341-0.148 0.341-0.34v-1.186h-1.882v-2.015h3.912v3.35c0 1.303-0.919 2.222-2.223 2.222h-3.321c-1.318 0-2.208-0.873-2.208-2.179v-4.668c0-1.304 0.919-2.223 2.239-2.223h3.305zm10.697 5.707v1.141c0 1.304-0.919 2.223-2.222 2.223h-3.01c-1.304 0-2.223-0.919-2.223-2.223v-0.993c0-0.652 0.282-1.229 0.696-1.675l3.915-4.179h2.77l-3.261 3.498h1.113c1.303 0 2.222 0.903 2.222 2.208zm-2.029 0.148c0-0.193-0.148-0.342-0.341-0.342h-2.713c-0.191 0-0.34 0.149-0.34 0.342v0.859c0 0.177 0.149 0.326 0.34 0.326h2.713c0.193 0 0.341-0.149 0.341-0.326v-0.859z"/>
    </g>
   </g>
   <g id="107" transform="matrix(1.0578 0 0 1.0449 314.64 37.007)">
    <g id="Key_107" fill="#2d3031">
     <path id="path7073-3" d="m150.84 182.6c0-0.37825 0.039-0.7586 0.11619-1.1306 0.0792-0.38244 0.19654-0.75546 0.35074-1.116 0.15528-0.36258 0.3453-0.71053 0.57009-1.0376 0.22477-0.32601 0.48104-0.63112 0.7688-0.90697 0.28667-0.27586 0.60376-0.52245 0.94255-0.7377s0.70039-0.39811 1.0761-0.54649c0.37354-0.14733 0.7612-0.26122 1.1565-0.33645 0.38657-0.0742 0.78183-0.11181 1.176-0.11181h43.092c0.39418 0 0.78834 0.0376 1.176 0.11181 0.39634 0.0763 1.9517-0.12655 2.3252 0.0218 0.3768 0.14943 2.7475 0.20602 3.0874 0.42231 0.3388 0.21525 1.3688 0.58916 1.6555 0.86606 0.28667 0.27585 0.41332 0.64409 0.63701 0.9701 0.2237 0.32601 0.80259 0.86337 0.95678 1.2249 0.15311 0.3584 0.3352 0.60621 0.41447 0.98655 0.0771 0.37198 0.32129 0.75601 0.37543 1.1316 0 0 4.1223 16.554 3.5938 24.935-0.0587 0.9305-0.24886 1.9061-0.74362 2.6964-0.74672 1.1927-1.9551 2.0781-3.1706 2.7872-0.72379 0.42222-1.5623 0.6186-2.374 0.82652-0.88489 0.22667-0.33129-0.0111-2.7025 0.45419-2.9068 0.46525-3.3694 0.5797-5.06 0.83242-2.4173 0.36135-4.8327 0.75899-7.2671 0.97764-4.51 0.40507-12.665 0.61178-13.57 0.61686l-22.428 0.12628c-0.39309 0.002-0.78836-0.0376-1.176-0.1118-0.39635-0.0763-0.7851-0.18913-1.1586-0.33751-0.3768-0.14942-0.7384-0.33228-1.0783-0.54857-0.33879-0.21525-0.65588-0.46289-0.94254-0.73979-0.28667-0.27585-0.54295-0.58096-0.76664-0.90697s-0.41372-0.67396-0.56791-1.0355c-0.1542-0.35944-0.27148-0.73247-0.34966-1.1128-0.0771-0.37198-0.11619-0.75232-0.11619-1.1316z" />
    </g>
    <g id="Letter_107" fill="#b2b2b2" stroke="none">
     <path id="path6853" d="m176.7 188.29c1.306 0 2.209 1.066 2.209 2.371h-2.016c0-0.191-0.163-0.34-0.341-0.34h-3.024c-0.179 0-0.342 0.149-0.342 0.34v4.373c0 0.223 0.163 0.297 0.327 0.297h3.024c0.193 0 0.342-0.148 0.342-0.342v-1.187h-1.883v-2.015h3.913v3.35c0 1.304-0.919 2.223-2.224 2.223h-3.32c-1.319 0-2.209-0.873-2.209-2.178v-4.67c0-1.304 0.919-2.223 2.238-2.223h3.306v0.001zm10.322 1.866-5.011 7.204h-2.462l4.893-7.04h-4.566v-2.03h7.146v1.866z"/>
    </g>
   </g>
   <g id="108" transform="matrix(1.0578 0 0 1.0449 -85.564 50.83)">
    <g id="Key_108" fill="#2d3031">
     <path id="path3097" d="m201.48 219.42c-17.782-1.1775-35.128-2.9755-53.571-4.6428-1.1856-0.10719-2.4934-0.50495-3.5714 0-0.84201 0.39437-1.4692 1.2686-1.7857 2.1428-0.32421 0.8955-0.5033 2.0486 0 2.8572 9.9045 15.911 13.769 22.561 21.071 33.571 0.80318 1.211 1.2314 2.8628 2.5 3.5714 0.88494 0.49432 3.4525 0.47341 4.4643 0.53571 10.18 0.62686 18.925 2.1964 29.107 1.6072 1.3288-0.0769 2.9422 0.17942 3.9286-0.71428 1.2845-1.1639 1.8771-6.3046 1.9643-8.0357 0.61947-12.306 0.61551-11.376 0.89287-23.393 0.016-0.69398 0.58164-6.4068 0-6.7857-0.80421-0.52387-1.9074-0.21869-2.8571-0.35714-0.71657-0.10446-1.4203-0.3093-2.1429-0.35715z"/>
    </g>
    <g id="Letter_108" fill="#b2b2b2" transform="translate(-1.9854)" stroke="none">
     <path id="path6829" d="m178.44 232.16c1.305 0 2.208 1.066 2.208 2.371h-2.016c0-0.191-0.163-0.34-0.34-0.34h-3.024c-0.179 0-0.342 0.149-0.342 0.34v4.373c0 0.223 0.163 0.297 0.326 0.297h3.024c0.193 0 0.342-0.148 0.342-0.342v-1.187h-1.883v-2.015h3.913v3.35c0 1.304-0.919 2.223-2.224 2.223h-3.32c-1.319 0-2.208-0.873-2.208-2.178v-4.67c0-1.304 0.919-2.223 2.238-2.223h3.306v0.001zm10.378 3.29c0 0.519-0.162 0.83-0.429 1.215 0.252 0.386 0.414 0.712 0.414 1.201v1.142c0 1.304-0.918 2.223-2.222 2.223h-2.728c-1.32 0-2.223-0.919-2.223-2.223v-1.142c0-0.504 0.163-0.83 0.429-1.229-0.252-0.371-0.4-0.682-0.4-1.187v-1.067c0-1.303 0.919-2.223 2.223-2.223h2.713c1.304 0 2.223 0.919 2.223 2.223v1.067zm-2.045 2.565c0-0.178-0.147-0.341-0.34-0.341h-2.445c-0.179 0-0.342 0.163-0.342 0.341v0.845c0 0.192 0.163 0.341 0.342 0.341h2.445c0.193 0 0.34-0.148 0.34-0.341v-0.845zm-3.082-2.699c0 0.179 0.148 0.342 0.326 0.342h2.431c0.193 0 0.342-0.163 0.342-0.342v-0.785c0-0.192-0.149-0.341-0.342-0.341h-2.431c-0.178 0-0.326 0.148-0.326 0.341v0.785z"/>
    </g>
   </g>
   <g id="109" transform="matrix(1.0578 0 0 1.0449 -20.455 -24.383)">
    <g id="Key_109" fill="#2d3031">
     <path id="path6977" d="m160.3 294.16 39.654 1.596c0.36271 0.0146 0.72497 0.0662 1.0779 0.15047 0.36189 0.0866 0.71433 0.20989 1.0515 0.36458 0.34015 0.1558 0.66602 0.34405 0.96969 0.56244 0.30371 0.21739 0.58622 0.46494 0.83965 0.73935 0.25439 0.27545 0.47875 0.57671 0.67334 0.89679s0.35635 0.66085 0.48566 1.0123c0.12835 0.35044 0.22225 0.7115 0.28087 1.0792 0.057 0.35857 0.0787 0.72373 0.0644 1.0864l-1.0568 26.908c-0.0143 0.36271-0.0655 0.72494-0.14942 1.0778-0.0862 0.36082-0.20919 0.71415-0.36354 1.0512-0.15546 0.34002-0.34339 0.66571-0.56147 0.96918-0.21809 0.30347-0.46536 0.58575-0.73947 0.83793-0.27419 0.25417-0.57526 0.47924-0.8951 0.67253-0.32083 0.19325-0.66048 0.35572-1.0128 0.48365-0.3493 0.12805-0.71125 0.22157-1.0788 0.27983-0.35847 0.0556-0.72359 0.077-1.0863 0.0624l-39.654-1.596c-0.36271-0.0146-0.72501-0.0652-1.0779-0.15047-0.36089-0.0866-0.71437-0.2089-1.0516-0.36358-0.34015-0.1558-0.66602-0.34406-0.96969-0.56244-0.30371-0.21739-0.58622-0.46494-0.83961-0.74035-0.25343-0.27441-0.47879-0.57571-0.67342-0.89479-0.19455-0.32108-0.35635-0.66085-0.48562-1.0133-0.12835-0.35044-0.22225-0.7115-0.28087-1.0792-0.056-0.35853-0.0776-0.72469-0.0644-1.0864l1.0568-26.908c0.0142-0.36271 0.0655-0.72494 0.14941-1.0778 0.0873-0.36178 0.20919-0.71415 0.36354-1.0512 0.1555-0.34102 0.34339-0.66572 0.56148-0.96918 0.21808-0.30347 0.46535-0.58575 0.73946-0.83793 0.27419-0.25417 0.57526-0.47924 0.8951-0.67253 0.32084-0.19325 0.66052-0.35672 1.0128-0.48465 0.34926-0.12705 0.71125-0.22157 1.0788-0.27883 0.35851-0.0566 0.72363-0.078 1.0863-0.0634z"/>
    </g>
    <g id="Letter_109" fill="#b2b2b2" stroke="none">
     <path id="path6997" d="m177.33 308.62c1.305 0 2.208 1.066 2.208 2.371h-2.016c0-0.191-0.162-0.34-0.34-0.34h-3.024c-0.179 0-0.342 0.149-0.342 0.34v4.373c0 0.223 0.163 0.297 0.326 0.297h3.024c0.194 0 0.342-0.148 0.342-0.342v-1.187h-1.883v-2.015h3.913v3.35c0 1.304-0.918 2.223-2.224 2.223h-3.319c-1.32 0-2.209-0.873-2.209-2.178v-4.67c0-1.304 0.919-2.223 2.238-2.223h3.306v0.001zm3.191 3.364v-1.142c0-1.304 0.903-2.223 2.209-2.223h3.008c1.304 0 2.225 0.919 2.225 2.223v0.993c0 0.652-0.282 1.229-0.698 1.675l-3.913 4.18h-2.773l3.262-3.483h-1.111c-1.305 0-2.209-0.919-2.209-2.223zm2.015-0.148c0 0.193 0.163 0.341 0.342 0.341h2.728c0.177 0 0.326-0.147 0.326-0.341v-0.845c0-0.192-0.149-0.341-0.326-0.341h-2.728c-0.179 0-0.342 0.149-0.342 0.341v0.845z"/>
    </g>
   </g>
   <g id="10A" transform="matrix(1.0578 0 0 1.0449 47.96 -63.834)">
    <g id="Key_10A" fill="#2d3031">
     <path id="path6929" d="m159.61 334.81 39.665 1.2679c0.36282 0.0116 0.72448 0.0602 1.0791 0.14155 0.36258 0.0836 0.716 0.20398 1.0544 0.35586 0.3414 0.15299 0.66878 0.33854 0.9742 0.5544 0.30545 0.21487 0.58995 0.46008 0.84559 0.73238 0.2566 0.27334 0.48338 0.57273 0.68059 0.89019 0.19714 0.31946 0.36167 0.65788 0.49378 1.0093 0.13117 0.34936 0.22799 0.70964 0.28958 1.0768 0.0599 0.35809 0.0845 0.72306 0.0732 1.0859l-0.83948 26.916c-0.0113 0.36282-0.0597 0.72546-0.14071 1.079-0.0833 0.36151-0.20242 0.71588-0.35504 1.0542-0.15272 0.34129-0.33801 0.66853-0.55364 0.97379-0.21562 0.30527-0.4606 0.58958-0.73267 0.84402-0.27213 0.25643-0.57137 0.48398-0.88964 0.67991-0.31927 0.1959-0.65759 0.36117-1.0088 0.49202-0.34826 0.13094-0.70944 0.22744-1.0765 0.28875-0.358 0.0586-0.72294 0.0829-1.0858 0.0713l-39.66-1.2677c-0.36282-0.0116-0.72551-0.0592-1.0791-0.14155-0.36158-0.0836-0.71603-0.20298-1.0545-0.35486-0.3414-0.15299-0.66878-0.33854-0.9742-0.5544-0.30545-0.21487-0.58995-0.46008-0.84556-0.73338-0.25564-0.27231-0.48342-0.57173-0.68062-0.88919-0.19714-0.31946-0.36167-0.65788-0.49378-1.0093-0.13117-0.34936-0.22799-0.70964-0.28958-1.0768-0.0589-0.35806-0.0835-0.72403-0.0732-1.0859l0.83948-26.916c0.0113-0.36282 0.0597-0.72546 0.14071-1.079 0.0843-0.36248 0.20342-0.71585 0.35504-1.0542 0.15275-0.34229 0.33801-0.66853 0.55363-0.9738 0.21563-0.30526 0.46061-0.58957 0.73268-0.84401 0.27213-0.25643 0.57137-0.48398 0.88964-0.67991 0.31927-0.1959 0.65762-0.36217 1.0089-0.49302 0.34823-0.12994 0.70944-0.22744 1.0765-0.28775 0.35903-0.0596 0.72397-0.0839 1.0868-0.0723z"/>
    </g>
    <g id="Letter_10A" fill="#b2b2b2" transform="translate(-3.3088)" stroke="none">
     <path id="path6949" d="m190.24 349.33c1.304 0 2.223 0.919 2.223 2.223v4.625c0 1.304-0.919 2.223-2.223 2.223h-2.905c-1.305 0-2.224-0.919-2.224-2.223v-4.625c0-1.304 0.919-2.223 2.224-2.223h2.905zm-2.461 7.041 2.016-5.01h-2.312c-0.193 0-0.342 0.148-0.342 0.34v4.328c0 0.193 0.149 0.342 0.342 0.342h0.296zm2.327 0c0.179 0 0.326-0.148 0.326-0.342v-4.328c0-0.191-0.147-0.34-0.326-0.34h-0.207l-2.016 5.01h2.223zm-13.4-7.041c1.305 0 2.209 1.067 2.209 2.371h-2.017c0-0.191-0.163-0.34-0.339-0.34h-3.025c-0.179 0-0.341 0.148-0.341 0.34v4.373c0 0.223 0.162 0.297 0.326 0.297h3.024c0.192 0 0.341-0.148 0.341-0.342v-1.187h-1.883v-2.015h3.914v3.35c0 1.304-0.919 2.223-2.224 2.223h-3.32c-1.319 0-2.208-0.873-2.208-2.178v-4.67c0-1.304 0.918-2.223 2.237-2.223h3.306v0.001zm6.504 0v9.07h-2.03v-7.039h-1.158v-2.031h3.188z"/>
    </g>
   </g>
   <g id="10B" transform="matrix(1.0578 0 0 1.0449 114.94 -139.51)">
    <g id="Key_10B" fill="#2d3031">
     <path id="path6905" d="m160.51 408.88h39.685c0.363 0 0.727 0.037 1.083 0.107 0.365 0.072 0.722 0.181 1.065 0.322 0.346 0.142 0.679 0.317 0.991 0.523 0.312 0.205 0.604 0.441 0.868 0.705 0.265 0.265 0.501 0.557 0.708 0.868 0.207 0.313 0.382 0.646 0.525 0.993 0.142 0.345 0.25 0.702 0.323 1.067 0.071 0.356 0.107 0.72 0.107 1.083v26.929c0 0.363-0.037 0.727-0.107 1.083-0.072 0.364-0.18 0.722-0.322 1.065-0.142 0.346-0.317 0.679-0.523 0.991s-0.442 0.604-0.706 0.867c-0.264 0.265-0.556 0.502-0.868 0.708-0.313 0.206-0.646 0.382-0.993 0.524-0.344 0.142-0.702 0.25-1.067 0.323-0.356 0.07-0.72 0.106-1.083 0.106h-39.69c-0.363 0-0.727-0.036-1.083-0.107-0.364-0.072-0.722-0.18-1.065-0.321-0.346-0.142-0.679-0.317-0.991-0.523-0.312-0.205-0.604-0.441-0.868-0.706-0.264-0.264-0.501-0.556-0.708-0.867-0.207-0.313-0.382-0.646-0.525-0.993-0.142-0.345-0.25-0.702-0.323-1.067-0.07-0.356-0.106-0.721-0.107-1.083v-26.929c0-0.363 0.037-0.727 0.107-1.083 0.073-0.365 0.181-0.722 0.322-1.065 0.142-0.347 0.317-0.679 0.523-0.991s0.442-0.604 0.706-0.867c0.264-0.265 0.556-0.502 0.868-0.708 0.313-0.206 0.646-0.383 0.993-0.525 0.344-0.141 0.702-0.25 1.067-0.322 0.357-0.071 0.721-0.107 1.084-0.107z"/>
    </g>
    <g id="Letter_10B" fill="#b2b2b2" stroke="none">
     <path id="path6925" d="m176.9 421.77c1.305 0 2.208 1.067 2.208 2.371h-2.016c0-0.191-0.162-0.34-0.34-0.34h-3.024c-0.179 0-0.342 0.148-0.342 0.34v4.373c0 0.223 0.163 0.297 0.326 0.297h3.024c0.194 0 0.342-0.148 0.342-0.342v-1.187h-1.883v-2.015h3.913v3.35c0 1.304-0.918 2.223-2.224 2.223h-3.319c-1.32 0-2.209-0.873-2.209-2.178v-4.67c0-1.304 0.919-2.223 2.238-2.223h3.306v0.001zm6.503 0v9.07h-2.03v-7.039h-1.157v-2.031h3.187zm4.448 0v9.07h-2.031v-7.039h-1.157v-2.031h3.188z"/>
    </g>
   </g>
   <g id="10C" transform="matrix(1.0578 0 0 1.0449 182.14 -183.63)">
    <g id="Key_10C" fill="#2d3031">
     <path id="path6881" d="m159.78 449.74h39.685c0.363 0 0.727 0.037 1.083 0.107 0.365 0.072 0.722 0.181 1.065 0.322 0.346 0.142 0.679 0.317 0.991 0.523 0.312 0.205 0.604 0.441 0.868 0.705 0.265 0.265 0.501 0.557 0.708 0.868 0.207 0.313 0.382 0.646 0.525 0.993 0.142 0.345 0.25 0.702 0.323 1.067 0.071 0.356 0.107 0.72 0.107 1.083v26.929c0 0.363-0.037 0.727-0.107 1.083-0.072 0.364-0.181 0.722-0.322 1.065-0.142 0.346-0.317 0.679-0.523 0.991s-0.442 0.604-0.706 0.867c-0.264 0.265-0.556 0.502-0.868 0.708-0.313 0.206-0.646 0.382-0.993 0.524-0.344 0.142-0.702 0.25-1.067 0.323-0.356 0.07-0.72 0.106-1.083 0.106h-39.685c-0.363 0-0.727-0.036-1.083-0.107-0.364-0.072-0.722-0.18-1.065-0.321-0.346-0.142-0.679-0.317-0.991-0.523-0.312-0.205-0.604-0.441-0.868-0.706-0.264-0.264-0.501-0.556-0.708-0.867-0.207-0.313-0.382-0.646-0.525-0.993-0.142-0.345-0.25-0.702-0.323-1.067-0.07-0.356-0.106-0.721-0.107-1.083v-26.929c0-0.363 0.037-0.727 0.107-1.083 0.073-0.365 0.181-0.722 0.322-1.065 0.142-0.347 0.317-0.679 0.523-0.991s0.442-0.604 0.706-0.867c0.264-0.265 0.556-0.502 0.868-0.708 0.313-0.206 0.646-0.383 0.993-0.525 0.344-0.141 0.702-0.25 1.067-0.322 0.356-0.071 0.72-0.107 1.083-0.107z"/>
    </g>
    <g id="Letter_10C" fill="#b2b2b2" stroke="none">
     <path id="path6901" d="m186.79 463.13c1.29 0 2.209 0.919 2.209 2.223v0.979c0 0.579-0.221 1.363-0.859 1.809-0.075 0.044-1.482 1.082-2.788 2.031h3.558v2.029h-7.025v-1.985s4.357-3.202 4.979-3.661c0.074-0.06 0.119-0.134 0.119-0.223v-0.83c0-0.191-0.162-0.34-0.341-0.34h-2.475c-0.193 0-0.342 0.148-0.342 0.34h-2.029c0-1.304 1.067-2.371 2.371-2.371h2.623v-0.001zm-13.474 0c1.305 0 2.209 1.067 2.209 2.371h-2.017c0-0.191-0.163-0.34-0.34-0.34h-3.024c-0.179 0-0.342 0.148-0.342 0.34v4.373c0 0.223 0.163 0.297 0.327 0.297h3.024c0.192 0 0.341-0.148 0.341-0.342v-1.187h-1.883v-2.015h3.914v3.35c0 1.304-0.919 2.223-2.224 2.223h-3.32c-1.319 0-2.209-0.873-2.209-2.178v-4.67c0-1.304 0.919-2.223 2.238-2.223h3.306v0.001zm6.504 0v9.07h-2.03v-7.039h-1.158v-2.031h3.188z"/>
    </g>
   </g>
   <g id="10D" transform="matrix(1.0578 0 0 1.0449 373.92 -154.28)">
    <g id="Key_10D" fill="#2d3031">
     <path id="path7169" d="m41.539 419.79 39.615-2.38c0.36236-0.0218 0.72683-0.008 1.0874 0.0419 0.36857 0.05 0.73132 0.13738 1.0819 0.25656 0.35376 0.122 0.69636 0.27572 1.0199 0.46265 0.32345 0.18593 0.62875 0.404 0.90779 0.6527 0.27998 0.24765 0.53266 0.52498 0.75755 0.82402 0.2249 0.29904 0.41913 0.62195 0.58213 0.95877 0.16194 0.33588 0.29064 0.68577 0.38487 1.0458 0.09171 0.35112 0.149 0.71332 0.17019 1.0747l1.5759 26.882c0.02124 0.36236 0.0056 0.72794-0.04344 1.0875-0.05057 0.36768-0.13743 0.73153-0.25911 1.0824-0.1215 0.35391-0.27671 0.69682-0.46409 1.0206-0.18738 0.32381-0.40588 0.62945-0.65402 0.90782-0.24803 0.28037-0.52565 0.53446-0.82504 0.75881-0.3004 0.22441-0.62245 0.42107-0.96059 0.58264-0.33509 0.16238-0.68608 0.29266-1.0462 0.38642-0.35128 0.0912-0.71253 0.14899-1.0748 0.17176l-39.616 2.3801c-0.36242 0.0208-0.72789 0.007-1.0874-0.0419-0.36757-0.05-0.73132-0.13738-1.082-0.25756-0.3537-0.121-0.69636-0.27572-1.0199-0.46265-0.32345-0.18593-0.62875-0.404-0.90773-0.6517-0.27904-0.24871-0.53272-0.52598-0.75755-0.82402-0.22495-0.30003-0.41913-0.62195-0.58219-0.95977-0.16188-0.33488-0.29064-0.68577-0.38487-1.0458-0.09071-0.35118-0.14795-0.71238-0.17019-1.0747l-1.5759-26.882c-0.02124-0.36236-0.0056-0.72794 0.04344-1.0875 0.05151-0.36874 0.13843-0.73159 0.25911-1.0824 0.12144-0.35491 0.27671-0.69682 0.46409-1.0206 0.18738-0.3238 0.40588-0.62945 0.65402-0.90782 0.24803-0.28036 0.52565-0.53446 0.82504-0.75881 0.3004-0.22441 0.62251-0.42007 0.96059-0.58263 0.33509-0.16239 0.68614-0.29167 1.0462-0.38643 0.35228-0.0913 0.71353-0.14905 1.0759-0.17082z"/>
    </g>
    <g id="Letter_10D" fill="#b2b2b2" stroke="none">
     <path id="path7189" d="m73.109 434.04c0 0.52-0.163 0.83-0.43 1.215 0.252 0.386 0.415 0.712 0.415 1.201v1.142c0 1.304-0.919 2.223-2.223 2.223h-2.831c-1.304 0-2.223-1.066-2.223-2.371h2.031c0 0.192 0.149 0.341 0.34 0.341h2.535c0.193 0 0.341-0.148 0.341-0.341v-0.845c0-0.178-0.148-0.342-0.341-0.342h-2.505v-2.015h2.52c0.192 0 0.341-0.163 0.341-0.342v-0.785c0-0.192-0.149-0.341-0.341-0.341h-2.52c-0.193 0-0.341 0.148-0.341 0.341h-2.032c0-1.305 0.92-2.371 2.226-2.371h2.815c1.305 0 2.224 0.919 2.224 2.223l-0.001 1.067zm-15.727-3.29c1.305 0 2.209 1.066 2.209 2.371h-2.018c0-0.192-0.162-0.341-0.339-0.341h-3.025c-0.178 0-0.341 0.148-0.341 0.341v4.373c0 0.222 0.163 0.296 0.327 0.296h3.024c0.192 0 0.341-0.148 0.341-0.341v-1.187h-1.883v-2.015h3.914v3.35c0 1.304-0.919 2.223-2.225 2.223h-3.319c-1.319 0-2.209-0.873-2.209-2.179v-4.669c0-1.304 0.919-2.223 2.237-2.223h3.307v0.001zm6.504 0v9.07h-2.03v-7.04h-1.158v-2.03h3.188z"/>
    </g>
   </g>
  <g id="10E" transform="matrix(1.0578 0 0 1.0449 379.66 -162.14)">
   <g id="Key_10E" fill="#2d3031">
    <path id="path3097-5" d="m95.152 421.79c18.81-1.2304 37.159-3.109 56.668-4.8513 1.2542-0.112 2.6375-0.52762 3.7779 0 0.89068 0.41208 1.5541 1.3256 1.8889 2.2391 0.34295 0.93571 0.53239 2.1406 0 2.9854-10.477 16.625-14.565 23.574-22.289 35.079-0.8496 1.2654-1.3025 2.9913-2.6445 3.7318-0.93609 0.51651-3.6521 0.49466-4.7223 0.55976-10.769 0.655-20.018 2.295-30.79 1.6793-1.4056-0.0803-3.1123 0.18748-4.1556-0.74635-1.3587-1.2161-1.9856-6.5876-2.0778-8.3965-0.65528-12.858-0.65109-11.887-0.94448-24.443-0.0169-0.72514-0.61526-6.6945 0-7.0904 0.85069-0.5474 2.0176-0.22851 3.0223-0.37318 0.75799-0.10915 1.5024-0.32319 2.2667-0.37319z" />
   </g>
   <g id="Letter_10E" fill="#b2b2b2" stroke="none">
    <path id="path7165" d="m127.34 430.68v9.07h-2.03v-3.558h-5.51v-1.734l1.467-3.778h2.164l-1.349 3.498h3.232v-3.498h2.03zm-16.212 0c1.305 0 2.209 1.066 2.209 2.371h-2.016c0-0.192-0.163-0.341-0.341-0.341h-3.024c-0.178 0-0.341 0.148-0.341 0.341v4.373c0 0.222 0.163 0.296 0.326 0.296h3.024c0.193 0 0.341-0.148 0.341-0.341v-1.187h-1.882v-2.015h3.913v3.35c0 1.304-0.919 2.223-2.224 2.223h-3.32c-1.319 0-2.209-0.873-2.209-2.179v-4.669c0-1.304 0.919-2.223 2.239-2.223h3.305v0.001zm6.504 0v9.07h-2.031v-7.04h-1.156v-2.03h3.187z"/>
   </g>
  </g>
  <g id="10F" transform="matrix(1.0578 0 0 1.0449 -13.887 -88.564)">
   <g id="Key_10F" stroke="#000" fill="#2d3031">
    <path id="path3094-6" d="m199.28 426.81c-0.30291 10.386-1.064 16.478-1.4286 27.489-0.0361 1.0912 0.0281 2.2356-0.35714 3.2553-0.18299 0.48433-0.51663 0.91418-0.89286 1.266-0.51004 0.47687-1.0918 1.1034-1.7857 1.0851-16.966-0.44759-24.961-0.21453-48.036-2.1702-1.9146-0.16227-3.673-1.338-5.1786-2.5319-1.5672-1.2428-2.5948-3.048-3.7946-4.6483-3.8302-5.1088-7.1396-10.59-10.848-15.788-3.137-4.3966-7.8694-10.182-9.6429-13.021-1.7735-2.8396-1.336-2.5939-1.7857-3.4361-0.44977-0.84222 0.0396-0.9709 0.26786-1.7181 0.22824-0.74717 2.5686-0.51255 5-0.54254 2.4314-0.03 2.8573-0.0928 8.0357 0s51.277 3.3954 58.929 3.4361c2.0831 0.0111 5.869 0.13456 7.4107 0.27127 1.0236 0.0907 2.1927-0.0524 3.0357 0.54254 0.67841 0.47888 1.1421 1.3399 1.25 2.1702 0.0886 0.68146-0.12691 2.5689-0.17858 4.3404z" />
   </g>
   <g id="Letter_10F" fill="#b2b2b2" transform="translate(-4.8213)" stroke="none">
    <path id="path6973" d="m180.55 430.68v2.031h-4.521v1.467h2.698c1.303 0 2.223 0.904 2.223 2.208v1.142c0 1.304-0.92 2.223-2.223 2.223h-2.684c-1.304 0-2.222-1.066-2.222-2.371h2.014c0 0.193 0.164 0.342 0.357 0.342h2.386c0.193 0 0.341-0.148 0.341-0.342v-0.846c0-0.176-0.148-0.341-0.341-0.341h-4.581v-5.513h6.553zm-15.021 0c1.304 0 2.208 1.066 2.208 2.371h-2.017c0-0.192-0.163-0.341-0.339-0.341h-3.025c-0.178 0-0.341 0.148-0.341 0.341v4.373c0 0.222 0.163 0.296 0.326 0.296h3.024c0.192 0 0.341-0.148 0.341-0.341v-1.187h-1.883v-2.015h3.914v3.35c0 1.304-0.919 2.223-2.224 2.223h-3.32c-1.319 0-2.208-0.873-2.208-2.179v-4.669c0-1.304 0.919-2.223 2.237-2.223h3.307v0.001zm6.503 0v9.07h-2.03v-7.04h-1.157v-2.03h3.187z"/>
   </g>
  </g>
  <g id="110" transform="matrix(1.0578 0 0 1.0449 168.13 -129.99)">
    <g id="Key_110" fill="#2d3031">
     <path id="path7241" d="m43.137 459.29 39.671 1.076c0.36287 0.01 0.72476 0.0567 1.0798 0.13633 0.36296 0.0819 0.71695 0.20051 1.0561 0.35076 0.34212 0.15133 0.67037 0.3353 0.97681 0.54968 0.30646 0.21339 0.59212 0.45722 0.84904 0.72828 0.25789 0.27209 0.48608 0.57039 0.68476 0.88789 0.19867 0.3175 0.36477 0.65612 0.49857 1.0059 0.13282 0.34873 0.23134 0.70853 0.29466 1.0754 0.06156 0.3578 0.08789 0.72364 0.07831 1.0855l-0.71243 26.919c-0.0096 0.36287-0.05622 0.72574-0.13561 1.0797-0.0816 0.36192-0.19904 0.71686-0.35006 1.0559-0.1511 0.34203-0.33485 0.67016-0.54903 0.97646-0.21418 0.30631-0.45782 0.5918-0.72868 0.84755-0.27092 0.25775-0.56908 0.48675-0.88642 0.68421-0.31834 0.19744-0.6559 0.36535-1.0065 0.49689-0.34763 0.13262-0.70839 0.23188-1.0752 0.29396-0.35772 0.0603-0.72255 0.0864-1.0854 0.0776l-39.672-1.076c-0.36284-0.0109-0.72576-0.0567-1.0798-0.13633-0.36196-0.0818-0.71695-0.20051-1.0561-0.35076-0.34212-0.15133-0.67037-0.3353-0.97681-0.54968-0.30646-0.21339-0.59212-0.45722-0.84901-0.72928-0.25692-0.27106-0.48611-0.56939-0.68481-0.88589-0.19864-0.3185-0.36477-0.65612-0.49854-1.0069-0.13285-0.34773-0.23134-0.70853-0.29466-1.0754-0.06056-0.35777-0.08689-0.72361-0.07831-1.0855l0.71243-26.919c0.0096-0.36287 0.05622-0.72574 0.13561-1.0797 0.08263-0.36289 0.20004-0.71684 0.35006-1.0559 0.15113-0.34303 0.33485-0.67016 0.54903-0.97646 0.21418-0.30631 0.45782-0.5918 0.72868-0.84755 0.27092-0.25775 0.56908-0.48675 0.88642-0.68421 0.31834-0.19744 0.6559-0.36535 1.0065-0.49789 0.34761-0.13162 0.70836-0.23088 1.0751-0.29296 0.35872-0.0603 0.72357-0.0874 1.0864-0.0776z"/>
    </g>
    <g id="Letter_110" fill="#b2b2b2" stroke="none">
     <path id="path7261" d="m73.142 477.55v1.142c0 1.304-0.919 2.223-2.222 2.223h-3.01c-1.304 0-2.223-0.919-2.223-2.223v-0.993c0-0.653 0.281-1.229 0.696-1.675l3.914-4.18h2.771l-3.261 3.498h1.113c1.303 0 2.222 0.905 2.222 2.208zm-2.031 0.149c0-0.193-0.148-0.342-0.34-0.342h-2.713c-0.192 0-0.341 0.148-0.341 0.342v0.859c0 0.177 0.149 0.325 0.341 0.325h2.713c0.192 0 0.34-0.148 0.34-0.325v-0.859zm-13.778-5.855c1.305 0 2.209 1.066 2.209 2.371h-2.017c0-0.192-0.163-0.341-0.339-0.341h-3.025c-0.179 0-0.341 0.148-0.341 0.341v4.372c0 0.223 0.162 0.297 0.326 0.297h3.024c0.192 0 0.341-0.148 0.341-0.341v-1.187h-1.883v-2.015h3.914v3.35c0 1.304-0.919 2.223-2.224 2.223h-3.32c-1.319 0-2.208-0.873-2.208-2.179v-4.669c0-1.304 0.919-2.223 2.237-2.223h3.306v0.001zm6.504 0v9.07h-2.03v-7.04h-1.158v-2.03h3.188z"/>
    </g>
   </g>
   <g id="111" transform="matrix(1.0578 0 0 1.0449 180.96 -128.73)">
    <g id="Key_111" fill="#2d3031">
     <path id="path7217" d="m96.624 459.82h39.685c0.363 0 0.727 0.037 1.083 0.107 0.365 0.072 0.722 0.181 1.065 0.322 0.346 0.142 0.679 0.317 0.991 0.523 0.312 0.205 0.604 0.441 0.868 0.705 0.265 0.265 0.501 0.557 0.708 0.869s0.382 0.646 0.525 0.992c0.142 0.345 0.25 0.702 0.323 1.067 0.071 0.356 0.107 0.721 0.107 1.083v26.929c0 0.363-0.037 0.727-0.107 1.083-0.072 0.364-0.18 0.722-0.322 1.065-0.142 0.346-0.317 0.679-0.523 0.991s-0.442 0.604-0.706 0.867c-0.264 0.265-0.556 0.502-0.868 0.708-0.313 0.206-0.646 0.383-0.993 0.524-0.344 0.142-0.702 0.251-1.067 0.323-0.356 0.07-0.72 0.106-1.083 0.107h-39.686c-0.363-0.001-0.727-0.037-1.083-0.107-0.364-0.072-0.722-0.181-1.065-0.322-0.346-0.142-0.679-0.317-0.991-0.523-0.312-0.205-0.604-0.441-0.868-0.706-0.264-0.264-0.501-0.556-0.708-0.867-0.207-0.313-0.382-0.646-0.525-0.993-0.142-0.344-0.25-0.702-0.323-1.067-0.07-0.356-0.106-0.721-0.107-1.083v-26.929c0-0.363 0.037-0.727 0.107-1.083 0.073-0.365 0.181-0.722 0.322-1.065 0.142-0.347 0.317-0.679 0.523-0.991s0.442-0.604 0.706-0.867c0.264-0.265 0.556-0.502 0.868-0.708 0.313-0.206 0.646-0.383 0.993-0.525 0.344-0.141 0.702-0.25 1.067-0.322 0.357-0.07 0.721-0.107 1.084-0.107z"/>
    </g>
    <g id="Letter_111" fill="#b2b2b2" stroke="none">
     <path id="path7237" d="m126.69 473.86-5.01 7.204h-2.461l4.892-7.04h-4.566v-2.03h7.145v1.866zm-14.901-1.867c1.304 0 2.208 1.067 2.208 2.371h-2.016c0-0.192-0.163-0.341-0.34-0.341h-3.024c-0.178 0-0.341 0.148-0.341 0.341v4.372c0 0.223 0.163 0.297 0.326 0.297h3.024c0.192 0 0.34-0.148 0.34-0.341v-1.187h-1.881v-2.015h3.912v3.35c0 1.304-0.919 2.223-2.223 2.223h-3.32c-1.318 0-2.208-0.874-2.208-2.179v-4.669c0-1.304 0.918-2.223 2.237-2.223h3.306v0.001zm6.504 0v9.07h-2.031v-7.04h-1.156v-2.03h3.187z"/>
    </g>
   </g>
   <g id="112" transform="matrix(1.0578 0 0 1.0449 193.59 -129.52)">
    <g id="Key_112" fill="#2d3031">
     <path id="path7193" d="m150.32 460.14 39.68-0.63301c0.36295-0.006 0.72748 0.0254 1.0845 0.0897 0.36607 0.0662 0.72473 0.16946 1.0699 0.30498 0.34816 0.13646 0.68385 0.30613 0.99901 0.50712 0.31516 0.2 0.61079 0.43131 0.87887 0.69107 0.26909 0.26074 0.50961 0.54894 0.72144 0.8576s0.392 0.63983 0.54037 0.9835c0.14735 0.34269 0.2609 0.69793 0.33957 1.0617 0.0765 0.35482 0.11821 0.7192 0.12384 1.0812l0.41913 26.926c0.006 0.36296-0.0257 0.7275-0.0901 1.0846-0.0663 0.3651-0.16974 0.72479-0.30538 1.07-0.1366 0.34822-0.30639 0.68397-0.50751 0.99922s-0.43255 0.61097-0.69242 0.87815c-0.25984 0.26918-0.54812 0.51081-0.85687 0.72176-0.30976 0.21097-0.63996 0.39326-0.98472 0.53977-0.34175 0.14747-0.69801 0.26217-1.0618 0.33998-0.35487 0.0757-0.71826 0.11747-1.0812 0.12426l-39.68 0.63301c-0.36297 0.005-0.72748-0.0254-1.0845-0.0897-0.36507-0.0662-0.72473-0.16946-1.0699-0.30498-0.34816-0.13646-0.68385-0.30613-0.99901-0.50712-0.31516-0.2-0.61079-0.43131-0.87889-0.69207-0.26807-0.25976-0.50959-0.54794-0.7214-0.8556-0.21185-0.30966-0.39201-0.63983-0.54039-0.9845-0.14734-0.34169-0.2609-0.69793-0.33957-1.0617-0.0755-0.35484-0.11721-0.71922-0.12384-1.0812l-0.41913-26.926c-0.006-0.36296 0.0257-0.7275 0.0901-1.0846 0.0673-0.36611 0.16974-0.72479 0.30538-1.07 0.13658-0.34922 0.30639-0.68397 0.50751-0.99922s0.43255-0.61097 0.69242-0.87815c0.25984-0.26918 0.54812-0.51081 0.85687-0.72176 0.30976-0.21097 0.63996-0.39326 0.98471-0.54077 0.34176-0.14647 0.69802-0.26117 1.0618-0.33898 0.35487-0.0757 0.71825-0.11847 1.0812-0.12426z"/>
    </g>
    <g id="Letter_112" fill="#b2b2b2" stroke="none">
     <path id="path7213" d="m181.07 475.29c0 0.519-0.163 0.83-0.429 1.215 0.251 0.386 0.414 0.712 0.414 1.201v1.142c0 1.304-0.919 2.223-2.222 2.223h-2.728c-1.32 0-2.223-0.919-2.223-2.223v-1.142c0-0.505 0.164-0.83 0.429-1.229-0.251-0.371-0.399-0.682-0.399-1.187v-1.067c0-1.304 0.918-2.223 2.222-2.223h2.713c1.304 0 2.223 0.919 2.223 2.223v1.067zm-2.046 2.564c0-0.177-0.148-0.341-0.34-0.341h-2.445c-0.179 0-0.342 0.164-0.342 0.341v0.845c0 0.192 0.163 0.341 0.342 0.341h2.445c0.192 0 0.34-0.148 0.34-0.341v-0.845zm-3.082-2.698c0 0.179 0.148 0.342 0.326 0.342h2.431c0.193 0 0.342-0.163 0.342-0.342v-0.785c0-0.192-0.149-0.341-0.342-0.341h-2.431c-0.178 0-0.326 0.148-0.326 0.341v0.785zm-10.544-3.157c1.304 0 2.208 1.067 2.208 2.371h-2.017c0-0.192-0.163-0.341-0.339-0.341h-3.025c-0.178 0-0.341 0.148-0.341 0.341v4.372c0 0.223 0.163 0.297 0.326 0.297h3.024c0.192 0 0.341-0.148 0.341-0.341v-1.187h-1.883v-2.015h3.914v3.35c0 1.304-0.919 2.223-2.224 2.223h-3.319c-1.32 0-2.209-0.874-2.209-2.179v-4.669c0-1.304 0.919-2.223 2.237-2.223h3.307v0.001zm6.501 0v9.07h-2.03v-7.04h-1.157v-2.03h3.187z"/>
    </g>
   </g>
   <g id="113">
    <g id="Key_113" fill="#2d3031">
     <path id="path3094" stroke-width=".99317" d="m413.93 357.09c0.30291 10.116 1.064 16.049 1.4286 26.773 0.0361 1.0628-0.0281 2.1774 0.35714 3.1705 0.18299 0.47172 0.51663 0.89039 0.89286 1.233 0.51004 0.46446 1.0918 1.0747 1.7857 1.0568 16.966-0.43593 31.729-0.95639 47.771-1.9811 1.908-0.12188 3.9674-0.98663 5.1786-2.466 1.3896-1.6972 1.8087-2.3765 2.8571-4.0077 2.2663-3.526 12.051-16.029 12.051-16.029s7.8694-9.9165 9.6429-12.682c1.7735-2.7656 1.336-2.5264 1.7857-3.3467 0.44977-0.82028-0.0396-0.94561-0.26786-1.6733-0.22824-0.72771-2.5686-0.4992-5-0.52842-2.4314-0.0292-2.8573-0.0905-8.0357 0s-51.277 3.307-58.929 3.3467c-2.0831 0.0109-5.869 0.13106-7.4107 0.26422-1.0236 0.0884-2.1927-0.0511-3.0357 0.52841-0.67841 0.46641-1.1421 1.305-1.25 2.1137-0.0886 0.66371 0.12691 2.502 0.17858 4.2274z"/>
    </g>
    <g id="Letter_113" fill="#b2b2b2" stroke="none">
     <path id="path6901-6-3-2-0" d="m447.06 360.67c1.3804 0 2.3367 1.1149 2.3367 2.4775h-2.1336c0-0.19957-0.17242-0.35526-0.35965-0.35526h-3.1988c-0.18934 0-0.36176 0.15464-0.36176 0.35526v4.5694c0 0.23301 0.17242 0.31034 0.3459 0.31034h3.1988c0.2031 0 0.36071-0.15465 0.36071-0.35736v-1.2403h-1.9918v-2.1055h4.1402v3.5004c0 1.3626-0.97212 2.3228-2.3526 2.3228h-3.5119c-1.3952 0-2.3367-0.9122-2.3367-2.2758v-4.8797c0-1.3626 0.97212-2.3228 2.3674-2.3228h3.4971v0.001z"/>
     <path id="path6901-6-7" d="m454.06 360.49v9.4772h-2.1473v-7.355h-1.2249v-2.1222z"/>
     <path id="path6997-9" d="m455.45 363.88v-1.1933c0-1.3626 0.95519-2.3228 2.3367-2.3228h3.1819c1.3794 0 2.3536 0.96026 2.3536 2.3228v1.0376c0 0.68127-0.2983 1.2842-0.73834 1.7502l-4.1392 4.3677h-2.9333l3.4505-3.6394h-1.1752c-1.3804 0-2.3367-0.96026-2.3367-2.3228zm2.1315-0.15465c0 0.20167 0.17242 0.35631 0.36177 0.35631h2.8857c0.18723 0 0.34484-0.1536 0.34484-0.35631v-0.88294c0-0.20062-0.15761-0.35631-0.34484-0.35631h-2.8857c-0.18935 0-0.36177 0.15569-0.36177 0.35631z"/>
    </g>
   </g>
   <g id="116">
    <g id="Key_116" fill="#2d3031">
     <path id="path3134" d="m351.79 452.33 64.397-1.7678 4.7982-0.75761 2.5254-2.2728 3.7881-3.7881 21.466-27.527 0.25254-1.7678-1.0102-1.2627-2.0203-0.75762-89.398 2.5254h-5.3033l-3.5355-0.25254-0.50508 1.0102-1.2627 2.2728v3.5355l-0.25254 29.8 1.0102 1.0102h1.2627z"/>
    </g>
    <g id="Letter_116" fill="#b2b2b2" stroke="none">
     <path id="path6901-6-3-2-9" d="m382.72 426.61c1.3804 0 2.3367 1.1149 2.3367 2.4775h-2.1336c0-0.19957-0.17242-0.35526-0.35965-0.35526h-3.1988c-0.18934 0-0.36176 0.15464-0.36176 0.35526v4.5694c0 0.23301 0.17242 0.31034 0.3459 0.31034h3.1988c0.2031 0 0.36071-0.15465 0.36071-0.35736v-1.2403h-1.9918v-2.1055h4.1402v3.5004c0 1.3626-0.97212 2.3228-2.3526 2.3228h-3.5119c-1.3952 0-2.3367-0.9122-2.3367-2.2758v-4.8797c0-1.3626 0.97212-2.3228 2.3674-2.3228h3.4971v0.001z"/>
     <path id="path6901-6-3-29" d="m392.15 426.25c1.3646 0 2.3367 0.96027 2.3367 2.3228v1.023c0 0.605-0.23377 1.4242-0.90865 1.8902-0.0793 0.046-1.5677 1.1306-2.9491 2.1222h3.7636v2.1201h-7.431v-2.0741s4.6088-3.3458 5.2668-3.8254c0.0783-0.0627 0.12588-0.14002 0.12588-0.23302v-0.86726c0-0.19958-0.17137-0.35527-0.36071-0.35527h-2.6181c-0.20415 0-0.36177 0.15465-0.36177 0.35527h-2.1463c0-1.3626 1.1287-2.4775 2.508-2.4775h2.7746v-0.001z"/>
     <path id="path6901-6-3-21" d="m401.34 426.25c1.3646 0 2.3367 0.96027 2.3367 2.3228v1.023c0 0.605-0.23377 1.4242-0.90865 1.8902-0.0793 0.046-1.5677 1.1306-2.9491 2.1222h3.7636v2.1201h-7.431v-2.0741s4.6088-3.3458 5.2668-3.8254c0.0783-0.0627 0.12588-0.14002 0.12588-0.23302v-0.86726c0-0.19958-0.17137-0.35527-0.36071-0.35527h-2.6181c-0.20415 0-0.36177 0.15465-0.36177 0.35527h-2.1463c0-1.3626 1.1287-2.4775 2.508-2.4775h2.7746v-0.001z"/>
    </g>
   </g>
   <g id="114">
    <g id="Key_114" fill="#2d3031">
     <path id="path3134-5" d="m255.67 452.28-64.397-1.7678-4.7982-0.75761-2.5254-2.2728-3.7881-3.7881-21.466-27.527-0.25254-1.7678 1.0102-1.2627 2.0203-0.75762 89.398 2.5254h5.3033l3.5355-0.25254 0.50508 1.0102 1.2627 2.2728v3.5355l0.25254 29.8-1.0102 1.0102h-1.2627z"/>
    </g>
    <g id="Letter_114" fill="#b2b2b2" stroke="none">
     <path id="path6901-6-3-2-6" d="m217.25 425.37c1.3804 0 2.3367 1.1149 2.3367 2.4775h-2.1336c0-0.19957-0.17242-0.35526-0.35965-0.35526h-3.1988c-0.18934 0-0.36176 0.15464-0.36176 0.35526v4.5694c0 0.23301 0.17242 0.31034 0.3459 0.31034h3.1988c0.2031 0 0.36071-0.15465 0.36071-0.35736v-1.2403h-1.9918v-2.1055h4.1402v3.5004c0 1.3626-0.97212 2.3228-2.3526 2.3228h-3.5119c-1.3952 0-2.3367-0.9122-2.3367-2.2758v-4.8797c0-1.3626 0.97212-2.3228 2.3674-2.3228h3.4971v0.001z"/>
     <path id="path6901-6-3-4" d="m225.98 425.19c1.3646 0 2.3367 0.96027 2.3367 2.3228v1.023c0 0.605-0.23377 1.4242-0.90865 1.8902-0.0793 0.046-1.5677 1.1306-2.9491 2.1222h3.7636v2.1201h-7.431v-2.0741s4.6088-3.3458 5.2668-3.8254c0.0783-0.0627 0.12588-0.14002 0.12588-0.23302v-0.86726c0-0.19958-0.17137-0.35527-0.36071-0.35527h-2.6181c-0.20415 0-0.36177 0.15465-0.36177 0.35527h-2.1463c0-1.3626 1.1287-2.4775 2.508-2.4775h2.7746v-0.001z"/>
     <path id="path6949-1" d="m234.91 425.44c1.3794 0 2.3515 0.96026 2.3515 2.3228v4.8327c0 1.3626-0.97212 2.3228-2.3515 2.3228h-3.0729c-1.3804 0-2.3526-0.96026-2.3526-2.3228v-4.8327c0-1.3626 0.97212-2.3228 2.3526-2.3228zm-2.6032 7.3571 2.1325-5.235h-2.4456c-0.20416 0-0.36177 0.15465-0.36177 0.35527v4.5223c0 0.20166 0.15761 0.35735 0.36177 0.35735zm2.4615 0c0.18934 0 0.34484-0.15464 0.34484-0.35735v-4.5223c0-0.19958-0.1555-0.35527-0.34484-0.35527h-0.21897l-2.1325 5.235z"/>
    </g>
   </g>
   <g id="115" transform="matrix(1.0578 0 0 1.0449 122.96 -66.608)">
    <g id="Key_115" fill="#2d3031">
     <path id="path7193-1" d="m150.62 459.82h39.685c0.363 0 0.727 0.037 1.083 0.107 0.365 0.072 0.722 0.181 1.065 0.322 0.346 0.142 0.679 0.317 0.991 0.523 0.312 0.205 0.604 0.441 0.868 0.705 0.265 0.265 0.501 0.557 0.708 0.869s0.382 0.646 0.525 0.992c0.142 0.345 0.25 0.702 0.323 1.067 0.071 0.356 0.107 0.721 0.107 1.083v26.929c0 0.363-0.037 0.727-0.107 1.083-0.072 0.364-0.181 0.722-0.322 1.065-0.142 0.346-0.317 0.679-0.523 0.991s-0.442 0.604-0.706 0.867c-0.264 0.265-0.556 0.502-0.868 0.708-0.313 0.206-0.646 0.383-0.993 0.524-0.344 0.142-0.702 0.251-1.067 0.323-0.356 0.07-0.72 0.106-1.083 0.107h-39.685c-0.363-0.001-0.727-0.037-1.083-0.107-0.364-0.072-0.722-0.181-1.065-0.322-0.346-0.142-0.679-0.317-0.991-0.523-0.312-0.205-0.604-0.441-0.868-0.706-0.264-0.264-0.501-0.556-0.708-0.867-0.207-0.313-0.382-0.646-0.525-0.993-0.142-0.344-0.25-0.702-0.323-1.067-0.07-0.356-0.106-0.721-0.107-1.083v-26.929c0-0.363 0.037-0.727 0.107-1.083 0.073-0.365 0.181-0.722 0.322-1.065 0.142-0.347 0.317-0.679 0.523-0.991s0.442-0.604 0.706-0.867c0.264-0.265 0.556-0.502 0.868-0.708 0.313-0.206 0.646-0.383 0.993-0.525 0.344-0.141 0.702-0.25 1.067-0.322 0.356-0.07 0.72-0.107 1.083-0.107z"/>
    </g>
    <g id="Letter_115" fill="#b2b2b2" stroke="none">
     <path id="path6901-6-3-2" d="m164.45 472.04c1.3804 0 2.3367 1.1149 2.3367 2.4775h-2.1336c0-0.19957-0.17242-0.35526-0.35965-0.35526h-3.1988c-0.18934 0-0.36176 0.15464-0.36176 0.35526v4.5694c0 0.23301 0.17242 0.31034 0.3459 0.31034h3.1988c0.2031 0 0.36071-0.15465 0.36071-0.35736v-1.2403h-1.9918v-2.1055h4.1402v3.5004c0 1.3626-0.97212 2.3228-2.3526 2.3228h-3.5119c-1.3952 0-2.3367-0.9122-2.3367-2.2758v-4.8797c0-1.3626 0.97212-2.3228 2.3674-2.3228h3.4971v0.001z"/>
     <path id="path6901-6-3" d="m173.53 471.91c1.3646 0 2.3367 0.96027 2.3367 2.3228v1.023c0 0.605-0.23377 1.4242-0.90865 1.8902-0.0793 0.046-1.5677 1.1306-2.9491 2.1222h3.7636v2.1201h-7.431v-2.0741s4.6088-3.3458 5.2668-3.8254c0.0783-0.0627 0.12588-0.14002 0.12588-0.23302v-0.86726c0-0.19958-0.17137-0.35527-0.36071-0.35527h-2.6181c-0.20415 0-0.36177 0.15465-0.36177 0.35527h-2.1463c0-1.3626 1.1287-2.4775 2.508-2.4775h2.7746v-0.001z"/>
     <path id="path6901-6" d="m180.94 472.02v9.4772h-2.1473v-7.355h-1.2249v-2.1222z"/>
    </g>
   </g>
   <g id="119" transform="matrix(0.7177063,0,0,0.68989252,158.70078,153.19495)">
    <g id="Key_119" fill="#2d3031">
     <path id="path3137" d="m 545.18,492.33 a 28.9915,31.113537 0 1 1 -57.983,0 28.9915,31.113537 0 1 1 57.983,0 z" transform="translate(19.799,19.092)" />
    </g>
   </g>
   <g id="117">
    <g id="Key_117" fill="#2d3031">
     <path id="path3139" d="m449.75 501.61c10.174-12.277 18.451-21.498 29.5-32.5 0.56022-0.55781 1.4624-0.81798 2.25-0.75 1.2258 0.1058 2.4669 0.80096 3.25 1.75 0.88905 1.0775 1.2535 2.6031 1.25 4-0.0714 28.841-1.4544 52.891-2.25 80.5-0.0316 1.0956-0.1547 2.2097-0.5 3.25-0.47564 1.4329-1.2464 2.7722-2.125 4-1.6296 2.2774-2.8954 3.3158-5.75 6.125-1.0115 0.9954-4.7308 3.8603-6.125 4.125-1.8527 0.35179-2.8255-0.42741-4.125-1.875-3.1869-3.5502-4.5438-6.1811-8.7261-12.917-3.7973-6.1162-5.4548-8.8885-7.8989-14.708-0.56358-1.3418-0.77008-3.0629-1-4.5-1.0704-6.6901-0.49043-15.101-0.875-22.5-0.1862-3.5824 0.1719-6.244 0.5-8.25 0.24893-1.5219 1.7336-4.6744 2.625-5.75z"/>
    </g>
   </g>
   <g id="118">
    <g id="Key_118" fill="#2d3031">
     <path id="path3141" d="m507.75 630.49c-0.71149 0.027-1.5244-0.2201-2-0.75-8.145-9.0757-20.875-29.375-20.875-29.375s-0.6356-1.3016-0.625-2c0.0174-1.1463 0.34278-2.4119 1.125-3.25 9.7216-10.416 21.375-21.375 21.375-21.375s1.5067-1.1495 2.375-1.5c1.1442-0.46189 2.3922-0.69685 3.625-0.75 24.502-1.0563 72.875-3.5 72.875-3.5s1.4532 0.49826 1.75 1.125c0.46676 0.98558 0.48126 2.5747-0.375 3.25-30.968 24.424-50.071 38.49-75.75 56.5-1.0531 0.73858-2.2146 1.5762-3.5 1.625z"/>
    </g>
   </g>
   
   <g id="11A">
    <g id="Key_11A" fill="#2d3031">
	 <path d="m 534.14873,473.26498 5.51551,-9.34558 5.33576,-9.44936 5.33576,9.44936 5.51551,9.34558 L 545,473.16121 z" transform="translate(-2,6)" />
	</g>
   </g>
   <g id="11C">
    <g id="Key_11C" fill="#2d3031">
     <path d="m 534.14873,473.26498 5.51551,-9.34558 5.33576,-9.44936 5.33576,9.44936 5.51551,9.34558 L 545,473.16121 z" transform="matrix(0.5,-0.8660254,0.8660254,0.5,-133.93386,777.81514)" />
	</g>
   </g>
   <g id="11D">
    <g id="Key_11D" fill="#2d3031">
     <path d="m 534.14873,473.26498 5.51551,-9.34558 5.33576,-9.44936 5.33576,9.44936 5.51551,9.34558 L 545,473.16121 z" transform="matrix(0,-1,1,0,43.080604,1052.3358)" />
	</g>
   </g>
   <g id="11B">
    <g id="Key_11B" fill="#2d3031">
     <path d="m 534.14873,473.26498 5.51551,-9.34558 5.33576,-9.44936 5.33576,9.44936 5.51551,9.34558 L 545,473.16121 z" transform="matrix(-0.8660254,-0.5,0.5,-0.8660254,815.56444,1184.2697)" />
	</g>
   </g>
 </g>
</svg>
